<?xml version="1.0" encoding="UTF-8"?>
<svg version="1.1" xmlns="http://www.w3.org/2000/svg" width="512" height="512">
<path d="M0 0 C1.2640198 -0.00384115 2.5280396 -0.00768229 3.83036304 -0.01163983 C5.23583275 -0.01085959 6.64130241 -0.0099808 8.046772 -0.00901413 C9.5377012 -0.01159775 11.0286297 -0.0146109 12.51955724 -0.01801753 C16.62244813 -0.02609111 20.72532152 -0.0278773 24.82821941 -0.028615 C29.25097944 -0.03046492 33.67373037 -0.03801194 38.09648514 -0.04475021 C47.77002939 -0.05833649 57.44356949 -0.06435868 67.1171217 -0.06876087 C73.15626679 -0.07152273 79.19541028 -0.07575998 85.23455429 -0.08026505 C101.95220591 -0.09245798 118.66985624 -0.10275732 135.38751221 -0.10614014 C136.4576345 -0.1063597 137.52775679 -0.10657927 138.63030703 -0.10680549 C139.70300213 -0.10702377 140.77569723 -0.10724204 141.88089824 -0.10746694 C144.05461804 -0.1079104 146.22833784 -0.10835697 148.40205765 -0.10880661 C149.48029971 -0.10902804 150.55854176 -0.10924947 151.66945782 -0.10947761 C169.14283928 -0.11342605 186.61617904 -0.13088139 204.08954439 -0.15416613 C222.02526814 -0.17787428 239.96097096 -0.19034174 257.89671063 -0.19150805 C267.96855136 -0.1924251 278.04033777 -0.19818499 288.11216354 -0.21632767 C296.68818674 -0.23172138 305.26413883 -0.23685341 313.84017321 -0.22858956 C318.21582145 -0.22468051 322.59132644 -0.22562511 326.96695709 -0.23964691 C330.97408236 -0.25237041 334.98095652 -0.25120202 338.98808137 -0.2390562 C340.43627999 -0.23709651 341.88449631 -0.24019021 343.33267006 -0.24890056 C354.1574455 -0.30987672 361.88685905 0.51688177 370.04854202 8.10017776 C376.44801811 15.21070676 378.01756656 22.36253888 378.05366898 31.70393753 C378.06024017 32.44926743 378.06681137 33.19459732 378.0735817 33.96251297 C378.09320986 36.41595447 378.10494924 38.86933529 378.11494827 41.32283401 C378.1190238 42.16276335 378.12309933 43.00269268 378.12729836 43.86807442 C378.14810703 48.30766297 378.16243526 52.74722101 378.17183304 57.18684769 C378.18293076 61.77254995 378.21738367 66.35777143 378.25700474 70.94330311 C378.28311755 74.47174367 378.29151973 78.00006818 378.29511452 81.52859688 C378.29998858 83.21951383 378.3116259 84.91042531 378.33015251 86.60124779 C378.3544478 88.96399581 378.35359806 91.32547839 378.34663773 93.68831253 C378.36585281 94.73496834 378.36585281 94.73496834 378.38545609 95.80276871 C378.35009392 99.09342475 378.07742462 100.86034398 376.09729385 103.53412247 C373.87666702 105.13142776 373.87666702 105.13142776 369.87666702 106.13142776 C369.87666702 112.40142776 369.87666702 118.67142776 369.87666702 125.13142776 C371.52666702 125.46142776 373.17666702 125.79142776 374.87666702 126.13142776 C377.23356046 128.34993801 377.81825335 129.69929191 378.25271451 132.91337222 C378.25320157 133.99449371 378.25368863 135.0756152 378.25419044 136.18949795 C378.26201369 137.43896747 378.26983693 138.68843699 378.27789724 139.97576922 C378.27141082 141.36483017 378.26464084 142.75388981 378.25761795 144.14294815 C378.26107353 145.6166682 378.26583743 147.09038566 378.27179968 148.5640977 C378.28435381 152.61951825 378.27811927 156.67472772 378.26884103 160.73014915 C378.26206858 165.10181304 378.27252299 169.47343998 378.28078079 173.84509659 C378.29414131 182.41285139 378.2912296 190.98052747 378.28254287 199.54828539 C378.27577363 206.51274634 378.27484632 213.47718519 378.27811432 220.44164848 C378.27857402 221.43208734 378.27903372 222.4225262 378.27950735 223.44297836 C378.28046651 225.45496665 378.28143915 227.46695493 378.28242512 229.47894321 C378.29098638 248.36039834 378.28113451 267.24180982 378.26502402 286.12325779 C378.25163054 302.32155966 378.25393951 318.519797 378.2677803 334.71809769 C378.283841 353.5232475 378.29015141 372.32835899 378.28094351 391.1335147 C378.27998786 393.1397192 378.27904475 395.14592371 378.27811432 397.15212822 C378.27765149 398.13923334 378.27718867 399.12633845 378.27671181 400.14335584 C378.27412262 407.09623923 378.27849162 414.0490983 378.28555298 421.00197792 C378.29397406 429.48026736 378.29167546 437.9584735 378.27571075 446.43675341 C378.26783464 450.76188691 378.26472503 455.08688159 378.2746582 459.41201401 C378.28361994 463.37417785 378.27864797 467.33607468 378.26272555 471.29821441 C378.25938386 472.72892924 378.26105802 474.15966679 378.26835291 475.59036692 C378.3226088 487.11879139 377.18486337 496.60836427 368.87666702 505.13142776 C362.52599514 510.20314489 357.88130281 512.253593 349.75333405 512.26285553 C347.85730434 512.26861725 347.85730434 512.26861725 345.92297101 512.27449536 C344.5175013 512.27371512 343.11203164 512.27283633 341.70656204 512.27186966 C340.21563285 512.27445328 338.72470435 512.27746643 337.23377681 512.28087306 C333.13088592 512.28894664 329.02801252 512.29073283 324.92511463 512.29147053 C320.50235461 512.29332045 316.07960368 512.30086747 311.65684891 512.30760574 C301.98330466 512.32119202 292.30976455 512.32721421 282.63621235 512.3316164 C276.59706726 512.33437826 270.55792377 512.33861551 264.51877975 512.34312057 C247.80112814 512.35531351 231.08347781 512.36561285 214.36582184 512.36899567 C213.29569955 512.36921523 212.22557725 512.3694348 211.12302701 512.36966102 C210.05033191 512.3698793 208.97763682 512.37009757 207.87243581 512.37032247 C205.698716 512.37076593 203.5249962 512.3712125 201.3512764 512.37166214 C200.27303434 512.37188357 199.19479228 512.372105 198.08387622 512.37233314 C180.61049477 512.37628158 163.13715501 512.39373692 145.66378966 512.41702166 C127.72806591 512.44072981 109.79236309 512.45319727 91.85662341 512.45436358 C81.78478268 512.45528063 71.71299628 512.46104052 61.6411705 512.4791832 C53.0651473 512.49457691 44.48919522 512.49970894 35.91316083 512.49144509 C31.53751259 512.48753604 27.1620076 512.48848064 22.78637695 512.50250244 C18.77925169 512.51522594 14.77237752 512.51405755 10.76525268 512.50191173 C9.31705406 512.49995204 7.86883774 512.50304574 6.42066398 512.51175609 C-4.40411145 512.57273225 -12.133525 511.74597376 -20.29520798 504.16267776 C-26.78137748 496.95582276 -28.27773206 489.75497943 -28.25476074 480.29486847 C-28.25681338 479.50839023 -28.25886601 478.72191198 -28.26098084 477.91160107 C-28.26665236 475.26621268 -28.26519341 472.62087634 -28.26377487 469.97548294 C-28.26635841 468.06367392 -28.26937154 466.15186544 -28.27277827 464.24005771 C-28.2808527 458.97839703 -28.28263809 453.71674999 -28.28337574 448.45508385 C-28.2852255 442.78350457 -28.29277242 437.11193239 -28.29951096 431.44035721 C-28.31309758 419.03548689 -28.31911941 406.63061981 -28.32352161 394.22574329 C-28.32628327 386.48217386 -28.33052046 378.73860567 -28.33502579 370.99503708 C-28.34721849 349.56096448 -28.35755344 328.12689352 -28.36090088 306.69281769 C-28.36112251 305.30692682 -28.3613443 303.92103596 -28.36156623 302.53514509 C-28.36178687 301.14591657 -28.36200735 299.75668805 -28.36222768 298.36745954 C-28.36267023 295.58044894 -28.36311735 292.79343835 -28.36356735 290.00642776 C-28.36367674 289.31541202 -28.36378613 288.62439627 -28.36389884 287.91244065 C-28.36752985 265.50390943 -28.38345203 243.09541055 -28.40675772 220.68689171 C-28.43135486 196.99331247 -28.44506692 173.29975712 -28.4462688 149.60616374 C-28.44718609 136.69111788 -28.45295203 123.77611438 -28.47108841 110.86108017 C-28.48647564 99.86490155 -28.49161796 88.86877838 -28.48335031 77.87259105 C-28.47943905 72.26141121 -28.48039673 66.65034309 -28.49440765 61.03917694 C-28.50711769 55.90206605 -28.50597448 50.76515115 -28.49381694 45.62804064 C-28.49185494 43.77003232 -28.49496156 41.91201026 -28.5036613 40.05402127 C-28.55841175 27.57029283 -28.3563284 16.60320755 -19.12333298 7.13142776 C-12.7726611 2.05971064 -8.12796876 0.00926253 0 0 Z " fill="#8EDCC0" transform="translate(81.12333297729492,-0.13142776489257813)"/>
<path d="M0 0 C197.82301135 0 197.82301135 0 203.34484863 5.21421814 C205.42679789 8.71834265 205.54681014 11.61319028 205.48242188 15.57250977 C205.48633438 16.31783966 205.49024689 17.06316956 205.49427795 17.83108521 C205.50023813 19.44287333 205.49710966 21.05471545 205.4858551 22.6664753 C205.46856901 25.21812338 205.47611243 27.76864104 205.4901123 30.32029724 C205.51543372 35.73444221 205.50994461 41.14831989 205.5 46.5625 C205.48847612 52.84092939 205.48959107 59.11880914 205.52406311 65.39716911 C205.53116173 67.91015726 205.51447653 70.42227637 205.49694824 72.93519592 C205.50265526 74.47576365 205.50947213 76.0163278 205.51757812 77.55688477 C205.50626358 78.2546553 205.49494904 78.95242584 205.48329163 79.67134094 C205.52523803 83.0043006 205.78948931 84.72550808 207.84265137 87.4026947 C209.99915326 89.17214409 209.99915326 89.17214409 213 90 C213.17455021 93.24931927 213.28091753 96.49743448 213.375 99.75 C213.42527344 100.67039062 213.47554687 101.59078125 213.52734375 102.5390625 C213.58420708 105.15477547 213.57122182 107.44483282 213 110 C210.0390625 112.515625 210.0390625 112.515625 207 114 C205.65105633 116.69788734 205.87387803 118.78234048 205.87250805 121.80473709 C205.8695004 123.04859122 205.86649275 124.29244534 205.86339396 125.57399201 C205.86508174 126.96707306 205.86685281 128.36015401 205.86869812 129.75323486 C205.8669971 131.22323912 205.86484794 132.69324291 205.86228687 134.16324592 C205.85767878 137.36906385 205.85627116 140.57486246 205.85725212 143.78068352 C205.858841 148.99599343 205.85365116 154.21128407 205.84762573 159.42658997 C205.83950315 166.99873092 205.8345656 174.57086849 205.83133507 182.143013 C205.82584527 194.1081942 205.80895468 206.07334679 205.78999329 218.03851318 C205.78363614 222.12956614 205.77732777 226.22061918 205.77101612 230.31167221 C205.76943236 231.33415045 205.7678486 232.35662869 205.76621684 233.41009112 C205.74827057 245.05610686 205.73204894 256.70212464 205.71704102 268.34814453 C205.71566514 269.41308914 205.71428927 270.47803375 205.71287171 271.5752494 C205.69094109 288.83345985 205.68018569 306.09166298 205.67267027 323.3498849 C205.66460363 341.05730449 205.64132738 358.76466108 205.6047166 376.47204471 C205.58266995 387.40015945 205.57303356 398.32814471 205.57921693 409.25628057 C205.58238776 416.74444655 205.5710863 424.23250186 205.54832252 431.7206336 C205.53563501 436.04338855 205.52950854 440.365897 205.54073906 444.68866158 C205.55088638 448.64527855 205.54270256 452.60141636 205.5198761 456.55797657 C205.51487025 457.99003899 205.51663173 459.42214421 205.52580877 460.85418597 C205.5968116 472.87848365 205.5968116 472.87848365 203.3429842 476.70382309 C154.91705169 524.16231988 67.80398113 482 0 482 C0 322.94 0 163.88 0 0 Z " fill="#F2F9FD" transform="translate(238,15)"/>
<path d="M0 0 C1.2640198 -0.00384115 2.5280396 -0.00768229 3.83036304 -0.01163983 C5.23583275 -0.01085959 6.64130241 -0.0099808 8.046772 -0.00901413 C9.5377012 -0.01159775 11.0286297 -0.0146109 12.51955724 -0.01801753 C16.62244813 -0.02609111 20.72532152 -0.0278773 24.82821941 -0.028615 C29.25097944 -0.03046492 33.67373037 -0.03801194 38.09648514 -0.04475021 C47.77002939 -0.05833649 57.44356949 -0.06435868 67.1171217 -0.06876087 C73.15626679 -0.07152273 79.19541028 -0.07575998 85.23455429 -0.08026505 C101.95220591 -0.09245798 118.66985624 -0.10275732 135.38751221 -0.10614014 C136.4576345 -0.1063597 137.52775679 -0.10657927 138.63030703 -0.10680549 C139.70300213 -0.10702377 140.77569723 -0.10724204 141.88089824 -0.10746694 C144.05461804 -0.1079104 146.22833784 -0.10835697 148.40205765 -0.10880661 C149.48029971 -0.10902804 150.55854176 -0.10924947 151.66945782 -0.10947761 C169.14283928 -0.11342605 186.61617904 -0.13088139 204.08954439 -0.15416613 C222.02526814 -0.17787428 239.96097096 -0.19034174 257.89671063 -0.19150805 C267.96855136 -0.1924251 278.04033777 -0.19818499 288.11216354 -0.21632767 C296.68818674 -0.23172138 305.26413883 -0.23685341 313.84017321 -0.22858956 C318.21582145 -0.22468051 322.59132644 -0.22562511 326.96695709 -0.23964691 C330.97408236 -0.25237041 334.98095652 -0.25120202 338.98808137 -0.2390562 C340.43627999 -0.23709651 341.88449631 -0.24019021 343.33267006 -0.24890056 C354.1574455 -0.30987672 361.88685905 0.51688177 370.04854202 8.10017776 C376.44801811 15.21070676 378.01756656 22.36253888 378.05366898 31.70393753 C378.06024017 32.44926743 378.06681137 33.19459732 378.0735817 33.96251297 C378.09320986 36.41595447 378.10494924 38.86933529 378.11494827 41.32283401 C378.1190238 42.16276335 378.12309933 43.00269268 378.12729836 43.86807442 C378.14810703 48.30766297 378.16243526 52.74722101 378.17183304 57.18684769 C378.18293076 61.77254995 378.21738367 66.35777143 378.25700474 70.94330311 C378.28311755 74.47174367 378.29151973 78.00006818 378.29511452 81.52859688 C378.29998858 83.21951383 378.3116259 84.91042531 378.33015251 86.60124779 C378.3544478 88.96399581 378.35359806 91.32547839 378.34663773 93.68831253 C378.36585281 94.73496834 378.36585281 94.73496834 378.38545609 95.80276871 C378.34908525 99.18728749 378.09853564 100.85219274 375.96448135 103.53802872 C372.67418801 106.04914774 372.67418801 106.04914774 369.87666702 106.13142776 C365.97730713 104.57168381 364.23181187 103.66414504 361.87666702 100.13142776 C361.68470159 97.65106114 361.60671246 95.28204207 361.62129593 92.80183792 C361.61586525 91.6866906 361.61586525 91.6866906 361.61032486 90.54901505 C361.60343271 88.93501513 361.60092509 87.32099191 361.60227203 85.70697784 C361.60323679 83.15122835 361.5903011 80.59589999 361.57329178 78.04021072 C361.52700478 70.77410019 361.50241406 63.50803219 361.49580765 56.24177933 C361.49079151 51.7966613 361.4665359 47.35198227 361.43048096 42.90701294 C361.42068444 41.21419155 361.41835023 39.52130975 361.42365265 37.82846832 C361.43072745 35.45843775 361.41343394 33.0897138 361.39082718 30.71980667 C361.39899963 30.02248932 361.40717209 29.32517197 361.41559219 28.60672379 C361.35801205 25.20896915 360.92485665 23.21127345 359.15703201 20.28215408 C310.0892872 -25.99609112 224.32442401 15.4773137 156.87666702 15.13142776 C156.87666702 174.19142776 156.87666702 333.25142776 156.87666702 497.13142776 C260.91361579 509.94422288 260.91361579 509.94422288 357.87666702 493.13142776 C360.83928158 489.44912832 361.25141767 486.61171132 361.25025463 481.95475388 C361.25724438 480.70430991 361.26423412 479.45386594 361.27143568 478.16552973 C361.26404245 476.78058515 361.25638021 475.39564199 361.24847794 474.01070023 C361.2510526 472.53739187 361.25495363 471.06408533 361.26006752 469.5907836 C361.27035157 465.54129558 361.26203137 461.49202512 361.25077069 457.44254756 C361.241926 453.07575355 361.25041769 448.70899061 361.25697708 444.34219742 C361.2661383 436.77499797 361.26480131 429.20785916 361.25679207 421.64065933 C361.24557042 410.69428516 361.25459248 399.74799755 361.26935387 388.80163091 C361.29313267 371.03509984 361.3064925 353.26857945 361.31050491 335.50203323 C361.31074978 334.43852282 361.31099465 333.37501241 361.31124694 332.2792744 C361.31379341 320.41116467 361.31435937 308.54305576 361.31331253 296.67494583 C361.3129795 292.37023799 361.31269411 288.06553015 361.31245804 283.7608223 C361.31236386 282.16749711 361.31236386 282.16749711 361.31226777 280.54198354 C361.31166337 262.8423936 361.32652644 245.14285296 361.35329109 227.44328356 C361.36911619 216.52186006 361.37133333 205.60059549 361.35615707 194.67917025 C361.34670886 187.19899547 361.35142123 179.71891668 361.3673709 172.2387532 C361.37608677 167.92014161 361.37815411 163.6017848 361.36284447 159.28318596 C361.34894764 155.33169164 361.35332089 151.3806594 361.37236548 147.42919046 C361.37598604 145.99790164 361.37280174 144.56657652 361.36221581 143.13532227 C361.34881474 141.19295517 361.36233017 139.25045777 361.37723827 137.30810165 C361.37713094 136.22822936 361.3770236 135.14835706 361.37691301 134.03576136 C362.00453108 130.38834242 363.27975945 128.72909757 365.87666702 126.13142776 C369.31416702 125.00642776 369.31416702 125.00642776 372.87666702 125.13142776 C375.9814389 127.5858003 377.65891154 129.11800129 378.50111151 133.03757071 C378.50070293 134.65868337 378.50070293 134.65868337 378.5002861 136.31254578 C378.51209144 137.56400635 378.52389678 138.81546691 378.53605986 140.10485053 C378.52386802 141.49097196 378.51120687 142.87708933 378.49812698 144.26320267 C378.50245575 145.73779001 378.50897154 147.21237228 378.51748705 148.68694139 C378.53450367 152.74024873 378.52028011 156.79293974 378.50097227 160.84621477 C378.4855646 165.21718917 378.49894232 169.58808708 378.50871658 173.95906448 C378.52325721 182.52340124 378.51099403 191.08750127 378.48960334 199.65181562 C378.46560647 209.62544949 378.46730701 219.59902895 378.46990925 229.57268527 C378.4736013 247.37128664 378.45276007 265.16977645 378.41865921 282.96834183 C378.38558667 300.2365997 378.37139737 317.50474042 378.37764359 334.77302933 C378.38441054 353.57343335 378.38193715 372.37378826 378.36228418 391.17418504 C378.36072496 392.66616703 378.36072496 392.66616703 378.35913423 394.18829007 C378.35704333 396.18599356 378.35493235 398.18369702 378.35280105 400.18140046 C378.34590932 407.13178552 378.34523554 414.08215543 378.3466835 421.03254318 C378.3481246 429.50716003 378.33840746 437.98168141 378.31473714 446.45626661 C378.30289158 450.77937432 378.29574233 455.10234911 378.30157471 459.42547226 C378.30675958 463.38575816 378.29801239 467.3457637 378.27830011 471.30600169 C378.27357386 472.73600863 378.27384303 474.16604299 378.27971047 475.5960457 C378.32240911 487.11914472 377.18098506 496.61234288 368.87666702 505.13142776 C362.52599514 510.20314489 357.88130281 512.253593 349.75333405 512.26285553 C347.85730434 512.26861725 347.85730434 512.26861725 345.92297101 512.27449536 C344.5175013 512.27371512 343.11203164 512.27283633 341.70656204 512.27186966 C340.21563285 512.27445328 338.72470435 512.27746643 337.23377681 512.28087306 C333.13088592 512.28894664 329.02801252 512.29073283 324.92511463 512.29147053 C320.50235461 512.29332045 316.07960368 512.30086747 311.65684891 512.30760574 C301.98330466 512.32119202 292.30976455 512.32721421 282.63621235 512.3316164 C276.59706726 512.33437826 270.55792377 512.33861551 264.51877975 512.34312057 C247.80112814 512.35531351 231.08347781 512.36561285 214.36582184 512.36899567 C213.29569955 512.36921523 212.22557725 512.3694348 211.12302701 512.36966102 C210.05033191 512.3698793 208.97763682 512.37009757 207.87243581 512.37032247 C205.698716 512.37076593 203.5249962 512.3712125 201.3512764 512.37166214 C200.27303434 512.37188357 199.19479228 512.372105 198.08387622 512.37233314 C180.61049477 512.37628158 163.13715501 512.39373692 145.66378966 512.41702166 C127.72806591 512.44072981 109.79236309 512.45319727 91.85662341 512.45436358 C81.78478268 512.45528063 71.71299628 512.46104052 61.6411705 512.4791832 C53.0651473 512.49457691 44.48919522 512.49970894 35.91316083 512.49144509 C31.53751259 512.48753604 27.1620076 512.48848064 22.78637695 512.50250244 C18.77925169 512.51522594 14.77237752 512.51405755 10.76525268 512.50191173 C9.31705406 512.49995204 7.86883774 512.50304574 6.42066398 512.51175609 C-4.40411145 512.57273225 -12.133525 511.74597376 -20.29520798 504.16267776 C-26.78137748 496.95582276 -28.27773206 489.75497943 -28.25476074 480.29486847 C-28.25681338 479.50839023 -28.25886601 478.72191198 -28.26098084 477.91160107 C-28.26665236 475.26621268 -28.26519341 472.62087634 -28.26377487 469.97548294 C-28.26635841 468.06367392 -28.26937154 466.15186544 -28.27277827 464.24005771 C-28.2808527 458.97839703 -28.28263809 453.71674999 -28.28337574 448.45508385 C-28.2852255 442.78350457 -28.29277242 437.11193239 -28.29951096 431.44035721 C-28.31309758 419.03548689 -28.31911941 406.63061981 -28.32352161 394.22574329 C-28.32628327 386.48217386 -28.33052046 378.73860567 -28.33502579 370.99503708 C-28.34721849 349.56096448 -28.35755344 328.12689352 -28.36090088 306.69281769 C-28.36112251 305.30692682 -28.3613443 303.92103596 -28.36156623 302.53514509 C-28.36178687 301.14591657 -28.36200735 299.75668805 -28.36222768 298.36745954 C-28.36267023 295.58044894 -28.36311735 292.79343835 -28.36356735 290.00642776 C-28.36367674 289.31541202 -28.36378613 288.62439627 -28.36389884 287.91244065 C-28.36752985 265.50390943 -28.38345203 243.09541055 -28.40675772 220.68689171 C-28.43135486 196.99331247 -28.44506692 173.29975712 -28.4462688 149.60616374 C-28.44718609 136.69111788 -28.45295203 123.77611438 -28.47108841 110.86108017 C-28.48647564 99.86490155 -28.49161796 88.86877838 -28.48335031 77.87259105 C-28.47943905 72.26141121 -28.48039673 66.65034309 -28.49440765 61.03917694 C-28.50711769 55.90206605 -28.50597448 50.76515115 -28.49381694 45.62804064 C-28.49185494 43.77003232 -28.49496156 41.91201026 -28.5036613 40.05402127 C-28.55841175 27.57029283 -28.3563284 16.60320755 -19.12333298 7.13142776 C-12.7726611 2.05971064 -8.12796876 0.00926253 0 0 Z M-10.97456318 20.89783347 C-12.65099343 24.15737689 -12.53652371 27.28862967 -12.50364971 30.86893654 C-12.50830963 31.6568481 -12.51296955 32.44475966 -12.51777068 33.25654733 C-12.52977989 35.91295502 -12.52030257 38.56885681 -12.51101303 41.22526932 C-12.51518336 43.14248073 -12.52065922 45.05968968 -12.52733284 46.97689402 C-12.54184574 52.2580536 -12.53752453 57.5390579 -12.53016603 62.82022619 C-12.52545104 68.51086378 -12.5379294 74.20146696 -12.54818344 79.89209366 C-12.56540988 91.04565481 -12.56620346 102.19915973 -12.56097054 113.35273074 C-12.5569346 122.41580591 -12.55836553 131.47886441 -12.5637188 140.54193878 C-12.56446722 141.83020746 -12.56521564 143.11847614 -12.56598674 144.44578326 C-12.56751817 147.06262775 -12.56905651 149.67947222 -12.57060171 152.2963167 C-12.58043587 169.87571176 -12.58458856 187.45509804 -12.57697582 205.0344944 C-12.57667865 205.72220905 -12.57638148 206.40992369 -12.5760753 207.11847818 C-12.57362626 212.70351624 -12.57101472 218.28855423 -12.56839116 223.87359221 C-12.55828902 245.65878542 -12.56664207 267.44390156 -12.58988571 289.22908401 C-12.61594809 313.69582019 -12.62875938 338.16250229 -12.62169796 362.62925398 C-12.61819998 375.58726177 -12.62047587 388.54520626 -12.63794899 401.50320435 C-12.6526393 412.53464799 -12.65334805 423.56598376 -12.63587808 434.59742521 C-12.62733938 440.22850485 -12.62528836 445.85939154 -12.64052963 451.49046135 C-12.65430149 456.64232001 -12.64971066 461.79381904 -12.6302904 466.94565649 C-12.62650691 468.81238664 -12.62951937 470.67914509 -12.63990205 472.5458502 C-12.65298988 475.07841614 -12.64156275 477.60972571 -12.62390423 480.14223671 C-12.63355474 480.87135187 -12.64320525 481.60046703 -12.6531482 482.35167658 C-12.58052644 487.40504654 -11.38064208 490.29302524 -8.12333298 494.13142776 C34.75988738 519.86135998 91.86666802 497.13142776 141.87666702 497.13142776 C141.87666702 338.07142776 141.87666702 179.01142776 141.87666702 15.13142776 C58.40183625 0.41563976 58.40183625 0.41563976 -10.97456318 20.89783347 Z " fill="#030403" transform="translate(81.12333297729492,-0.13142776489257813)"/>
<path d="M0 0 C7.010834 -0.07618093 14.02156089 -0.12865495 21.03271484 -0.16479492 C23.41687001 -0.179864 25.80099753 -0.20032291 28.18505859 -0.22631836 C31.61562937 -0.26278337 35.045833 -0.27974552 38.4765625 -0.29296875 C40.07064438 -0.31619453 40.07064438 -0.31619453 41.69692993 -0.33988953 C47.18224232 -0.34113173 51.36854309 -0.28474974 56 3 C59.33717041 6.35425613 60.45707266 8.70499899 60.51670837 13.46418762 C60.50539383 14.15993393 60.49407928 14.85568024 60.48242188 15.57250977 C60.48633438 16.31783966 60.49024689 17.06316956 60.49427795 17.83108521 C60.50023813 19.44287333 60.49710966 21.05471545 60.4858551 22.6664753 C60.46856901 25.21812338 60.47611243 27.76864104 60.4901123 30.32029724 C60.51543372 35.73444221 60.50994461 41.14831989 60.5 46.5625 C60.48847612 52.84092939 60.48959107 59.11880914 60.52406311 65.39716911 C60.53116173 67.91015726 60.51447653 70.42227637 60.49694824 72.93519592 C60.50265526 74.47576365 60.50947213 76.0163278 60.51757812 77.55688477 C60.50626358 78.2546553 60.49494904 78.95242584 60.48329163 79.67134094 C60.52523803 83.0043006 60.78948931 84.72550808 62.84265137 87.4026947 C64.99915326 89.17214409 64.99915326 89.17214409 68 90 C68.17455021 93.24931927 68.28091753 96.49743448 68.375 99.75 C68.42527344 100.67039062 68.47554687 101.59078125 68.52734375 102.5390625 C68.58420708 105.15477547 68.57122182 107.44483282 68 110 C65.0390625 112.515625 65.0390625 112.515625 62 114 C60.65105633 116.69788734 60.87387803 118.78234048 60.87250805 121.80473709 C60.8695004 123.04859122 60.86649275 124.29244534 60.86339396 125.57399201 C60.86508174 126.96707306 60.86685281 128.36015401 60.86869812 129.75323486 C60.8669971 131.22323912 60.86484794 132.69324291 60.86228687 134.16324592 C60.85767878 137.36906385 60.85627116 140.57486246 60.85725212 143.78068352 C60.858841 148.99599343 60.85365116 154.21128407 60.84762573 159.42658997 C60.83950315 166.99873092 60.8345656 174.57086849 60.83133507 182.143013 C60.82584527 194.1081942 60.80895468 206.07334679 60.78999329 218.03851318 C60.78363614 222.12956614 60.77732777 226.22061918 60.77101612 230.31167221 C60.76943236 231.33415045 60.7678486 232.35662869 60.76621684 233.41009112 C60.74827057 245.05610686 60.73204894 256.70212464 60.71704102 268.34814453 C60.71566514 269.41308914 60.71428927 270.47803375 60.71287171 271.5752494 C60.69094109 288.83345985 60.68018569 306.09166298 60.67267027 323.3498849 C60.66460363 341.05730449 60.64132738 358.76466108 60.6047166 376.47204471 C60.58266995 387.40015945 60.57303356 398.32814471 60.57921693 409.25628057 C60.58238776 416.74444655 60.5710863 424.23250186 60.54832252 431.7206336 C60.53563501 436.04338855 60.52950854 440.365897 60.54073906 444.68866158 C60.55088638 448.64527855 60.54270256 452.60141636 60.5198761 456.55797657 C60.51487025 457.99003899 60.51663173 459.42214421 60.52580877 460.85418597 C60.60450821 474.18190025 60.60450821 474.18190025 56 479 C50.62873848 482.94213896 44.85953895 482.38596876 38.4765625 482.29296875 C37.37524994 482.28872391 36.27393738 482.28447906 35.13925171 482.28010559 C31.63424867 482.2633615 28.12982821 482.22571614 24.625 482.1875 C22.24349791 482.17244769 19.86198677 482.15876024 17.48046875 482.14648438 C11.65344828 482.11347193 5.82676577 482.06331464 0 482 C0.74869792 480.33984375 1.49739583 478.6796875 2.24609375 477.01953125 C4.16150448 471.88861236 4.16658568 466.77147283 4.20532227 461.35424805 C4.21522186 460.4952037 4.22512146 459.63615936 4.23532104 458.75108337 C4.26682213 455.92132287 4.29164832 453.09154561 4.31640625 450.26171875 C4.33698562 448.29587883 4.35798235 446.33004323 4.37937927 444.36421204 C4.43449842 439.19725048 4.48395241 434.03024966 4.53222656 428.86322021 C4.58251584 423.58781451 4.6381631 418.31246562 4.69335938 413.03710938 C4.80081669 402.69145482 4.90228915 392.34575087 5 382 C6.10456543 381.97812622 6.10456543 381.97812622 7.23144531 381.95581055 C10.57149004 381.88128889 13.91053981 381.78464127 17.25 381.6875 C18.40886719 381.66494141 19.56773437 381.64238281 20.76171875 381.61914062 C22.43427734 381.5659668 22.43427734 381.5659668 24.140625 381.51171875 C25.68024902 381.47244263 25.68024902 381.47244263 27.25097656 381.43237305 C30.37254719 380.94140488 31.78889941 380.23995513 34 378 C34.66666667 374.5 34.66666667 374.5 34 371 C30.93205728 367.89202108 28.40739814 367.5971275 24.140625 367.48828125 C23.13547852 367.45516846 22.13033203 367.42205566 21.09472656 367.38793945 C19.8259668 367.36304443 18.55720703 367.33814941 17.25 367.3125 C13.2075 367.209375 9.165 367.10625 5 367 C5 356.77 5 346.54 5 336 C17.25 335.6875 17.25 335.6875 21.09472656 335.61206055 C22.09987305 335.57894775 23.10501953 335.54583496 24.140625 335.51171875 C25.68024902 335.47244263 25.68024902 335.47244263 27.25097656 335.43237305 C30.37254719 334.94140488 31.78889941 334.23995513 34 332 C34.66666667 328.5 34.66666667 328.5 34 325 C27.49666853 319.5313075 27.49666853 319.5313075 5 321 C5 295.59 5 270.18 5 244 C17.375 243.505 17.375 243.505 30 243 C34.16420059 240.59165543 34.16420059 240.59165543 34.390625 237.73828125 C34.34421875 236.93777344 34.2978125 236.13726562 34.25 235.3125 C34.21390625 234.50425781 34.1778125 233.69601563 34.140625 232.86328125 C34.09421875 232.24839844 34.0478125 231.63351563 34 231 C30.81358159 229.93786053 28.52164933 229.86218585 25.17243958 229.84178162 C23.9566774 229.8319928 22.74091522 229.82220398 21.48831177 229.81211853 C20.13909951 229.80621439 18.78988685 229.80040394 17.44067383 229.79467773 C16.02152725 229.78509871 14.60238353 229.77508862 13.1832428 229.76467896 C9.32818973 229.73762642 5.47312441 229.71661874 1.61802888 229.69667697 C-2.40988764 229.67481958 -6.4377664 229.64742968 -10.46565247 229.62062073 C-18.09413126 229.57069051 -25.72263101 229.52575289 -33.35115081 229.48259836 C-42.0354815 229.43322881 -50.7197743 229.37830963 -59.40406835 229.32291877 C-77.26934372 229.20909367 -95.13465485 229.10225576 -113 229 C-113 228.67 -113 228.34 -113 228 C-74.06 228 -35.12 228 5 228 C5 218.1 5 208.2 5 198 C17.25 197.6875 17.25 197.6875 21.09472656 197.61206055 C22.09987305 197.57894775 23.10501953 197.54583496 24.140625 197.51171875 C25.68024902 197.47244263 25.68024902 197.47244263 27.25097656 197.43237305 C30.34622752 196.9455445 31.76618163 196.16804044 34 194 C34.48168728 191.72110658 34.48168728 191.72110658 34.25 189.3125 C34.21390625 188.50425781 34.1778125 187.69601563 34.140625 186.86328125 C34.09421875 186.24839844 34.0478125 185.63351563 34 185 C30.81358159 183.93786053 28.52164933 183.86218585 25.17243958 183.84178162 C23.9566774 183.8319928 22.74091522 183.82220398 21.48831177 183.81211853 C20.13909951 183.80621439 18.78988685 183.80040394 17.44067383 183.79467773 C16.02152725 183.78509871 14.60238353 183.77508862 13.1832428 183.76467896 C9.32818973 183.73762642 5.47312441 183.71661874 1.61802888 183.69667697 C-2.40988764 183.67481958 -6.4377664 183.64742968 -10.46565247 183.62062073 C-18.09413126 183.57069051 -25.72263101 183.52575289 -33.35115081 183.48259836 C-42.0354815 183.43322881 -50.7197743 183.37830963 -59.40406835 183.32291877 C-77.26934372 183.20909367 -95.13465485 183.10225576 -113 183 C-113 182.67 -113 182.34 -113 182 C-74.06 182 -35.12 182 5 182 C5 167.81 5 153.62 5 139 C3.35 139 1.7 139 0 139 C0 138.67 0 138.34 0 138 C1.86869751 137.76567261 1.86869751 137.76567261 3.77514648 137.52661133 C6.33082736 136.87646625 7.6195324 136.51111096 9.21047974 134.37387085 C10.17078986 132.13628473 10.90632531 129.90916883 11.59765625 127.57421875 C12.01903618 126.29715561 12.01903618 126.29715561 12.44892883 124.99429321 C13.35165434 122.23443338 14.20730547 119.46241595 15.0625 116.6875 C15.66902957 114.80070677 16.27856932 112.91487855 16.89111328 111.0300293 C18.0844852 107.34486658 19.26113549 103.65506696 20.42333984 99.95996094 C21.70800798 95.89044826 23.05460537 91.85071299 24.45703125 87.8203125 C24.7914624 86.85778564 25.12589355 85.89525879 25.47045898 84.90356445 C26.05138011 83.23951157 26.63527449 81.576492 27.22290039 79.91479492 C28.61190897 75.81852913 29.38414251 72.3297418 29 68 C28.06402685 65.98048938 28.06402685 65.98048938 26 65 C22.5 64.41666667 22.5 64.41666667 19 65 C15.9240439 68.13310501 14.86152453 71.84000275 13.51953125 75.953125 C13.30181564 76.61334656 13.08410004 77.27356812 12.85978699 77.95379639 C12.17024318 80.05027767 11.49124619 82.15000115 10.8125 84.25 C10.34509462 85.67731065 9.87700296 87.10439675 9.40820312 88.53125 C8.26417855 92.01826897 7.12958336 95.50827246 6 99 C5.67 99 5.34 99 5 99 C4.99413376 97.93004288 4.98826752 96.86008575 4.98222351 95.75770569 C4.92488959 85.65037214 4.85207239 75.54325153 4.76428509 65.43613529 C4.71965043 60.2405612 4.68037912 55.04506428 4.65356445 49.84936523 C4.62746258 44.83065899 4.58701159 39.81225081 4.53681374 34.79372978 C4.5201915 32.88372964 4.50864842 30.973678 4.50238609 29.0636158 C4.4926943 26.3781152 4.46457516 23.6933692 4.43237305 21.00805664 C4.43380814 20.22689987 4.43524323 19.4457431 4.4367218 18.64091492 C4.34126672 12.97364328 3.00435628 8.27751707 1 3 C0.505 1.515 0.505 1.515 0 0 Z " fill="#E3F5FE" transform="translate(383,15)"/>
<path d="M0 0 C0.7425 0.55042969 1.485 1.10085937 2.25 1.66796875 C3.28125 2.38984375 4.3125 3.11171875 5.375 3.85546875 C15.58859122 12.88487548 23.22710706 26.60011991 24.48754883 40.23828125 C25.08723382 52.58718745 24.89761287 63.44744688 19.25 74.66796875 C18.80398437 75.56386719 18.35796875 76.45976562 17.8984375 77.3828125 C9.11664956 93.30286941 -4.41480604 102.19445123 -21.61547852 107.2121582 C-38.17812032 110.7489822 -54.01891898 107.06719914 -68.1328125 98.37890625 C-80.78143056 90.11010817 -89.7252182 76.6664671 -93.27734375 61.96875 C-95.6743195 45.22953915 -94.06789882 28.58566782 -83.75 14.66796875 C-62.97208061 -11.3240323 -28.28779415 -19.742523 0 0 Z " fill="#020302" transform="translate(180.75,67.33203125)"/>
<path d="M0 0 C0.89627609 -0.0049649 1.79255219 -0.00992981 2.71598816 -0.01504517 C5.68534103 -0.02966666 8.65464045 -0.03646933 11.62402344 -0.04199219 C13.68804933 -0.04774433 15.75207521 -0.05350206 17.81610107 -0.05926514 C22.14709726 -0.06977556 26.47807488 -0.07561773 30.80908203 -0.07910156 C36.35177329 -0.08458164 41.89421831 -0.1085992 47.43683243 -0.13707352 C51.70227773 -0.15572287 55.96766404 -0.16090676 60.23314667 -0.16243744 C62.27603245 -0.16546008 64.31891729 -0.17347547 66.361763 -0.18662262 C69.22443708 -0.20372844 72.08651392 -0.20179155 74.94921875 -0.1953125 C75.78895737 -0.20452728 76.62869598 -0.21374207 77.49388123 -0.22323608 C83.54483399 -0.18046059 88.52467309 0.73838843 93.19433594 4.91503906 C93.89429688 5.81029297 93.89429688 5.81029297 94.60839844 6.72363281 C95.09050781 7.32304687 95.57261719 7.92246094 96.06933594 8.54003906 C99.47619423 13.28448937 98.53452156 19.05257492 98.58349609 24.68994141 C98.59997208 26.07683185 98.62715131 27.46364035 98.66552734 28.85009766 C99.0451845 42.65311139 99.0451845 42.65311139 94.89990234 48.56103516 C89.3343155 53.90484649 85.06677179 54.7492172 77.66723633 54.69458008 C76.24901329 54.70750343 76.24901329 54.70750343 74.80213928 54.72068787 C71.68649677 54.74333227 68.57175486 54.7366114 65.45605469 54.72753906 C63.28421258 54.73277545 61.11237275 54.73905199 58.9405365 54.74632263 C54.3919707 54.75672417 49.84371779 54.75216893 45.29516602 54.73754883 C39.47317322 54.72036521 33.65216771 54.7438531 27.83028507 54.77903843 C23.34603871 54.80102488 18.86202811 54.79956779 14.37774467 54.79127312 C12.23159134 54.79045422 10.08542059 54.79730579 7.9393177 54.81204414 C4.93525072 54.82951173 1.93295174 54.81492819 -1.07104492 54.79223633 C-2.39371368 54.80977463 -2.39371368 54.80977463 -3.74310303 54.82766724 C-9.97734501 54.732108 -13.04027076 53.24592172 -17.76660156 49.16113281 C-22.79867673 42.68561929 -22.40189236 34.4129386 -22.32910156 26.59863281 C-22.35294922 25.41849609 -22.37679687 24.23835938 -22.40136719 23.02246094 C-22.38920553 15.77816504 -21.62959037 10.70149517 -16.76660156 5.16113281 C-11.4161191 0.19282767 -7.04430344 0.00928781 0 0 Z " fill="#030403" transform="translate(107.7666015625,230.8388671875)"/>
<path d="M0 0 C1.34550934 -0.00832352 1.34550934 -0.00832352 2.71820068 -0.01681519 C5.66091616 -0.02855326 8.60207173 -0.00439753 11.54467773 0.02148438 C13.6015567 0.02319698 15.65843785 0.02312827 17.71531677 0.0213623 C22.01664235 0.02301219 26.31744464 0.04165095 30.61865234 0.07324219 C36.12204626 0.11294334 41.62475635 0.11728231 47.12826633 0.10977936 C51.37231165 0.10670488 55.61620426 0.11884682 59.86021233 0.13591003 C61.88911926 0.14292249 63.91804349 0.1460667 65.94696236 0.1452179 C68.78527027 0.14702268 71.62277 0.16846204 74.4609375 0.1953125 C75.29282089 0.1923819 76.12470428 0.18945129 76.98179626 0.18643188 C82.99415604 0.27385308 87.98920426 1.22125294 92.62670898 5.36914062 C93.32666992 6.26439453 93.32666992 6.26439453 94.04077148 7.17773438 C94.52288086 7.77714844 95.00499023 8.3765625 95.50170898 8.99414062 C98.90856728 13.73859093 97.9668946 19.50667648 98.01586914 25.14404297 C98.03234513 26.53093342 98.05952435 27.91774192 98.09790039 29.30419922 C98.32548377 37.57833927 98.49888212 44.28128995 92.66577148 50.61523438 C87.80747478 55.04485784 82.81273683 54.77788119 76.53198242 54.80810547 C75.59669205 54.81628296 74.66140167 54.82446045 73.69776917 54.83288574 C70.59856811 54.85772414 67.49941281 54.87425192 64.40014648 54.88867188 C63.34147621 54.89399555 62.28280594 54.89931923 61.19205475 54.90480423 C55.5884117 54.93152917 49.98479089 54.95090612 44.38110352 54.96533203 C38.59612162 54.98197742 32.81170966 55.02675662 27.02694321 55.07770348 C22.57620598 55.11137425 18.12560407 55.1229093 13.67475128 55.12855911 C11.54252009 55.13527208 9.41029781 55.15049524 7.27819061 55.17444992 C4.29070195 55.20609967 1.30475126 55.20613823 -1.68286133 55.19873047 C-2.99857368 55.22333847 -2.99857368 55.22333847 -4.34086609 55.2484436 C-10.57159573 55.18534838 -13.61208571 53.69733227 -18.33422852 49.61523438 C-23.36630369 43.13972086 -22.96951931 34.86704016 -22.89672852 27.05273438 C-22.92057617 25.87259766 -22.94442383 24.69246094 -22.96899414 23.4765625 C-22.95677374 16.19727715 -22.35334088 11.06037214 -17.33422852 5.61523438 C-11.78169237 1.03647002 -7.07393271 -0.11305931 0 0 Z " fill="#030403" transform="translate(108.334228515625,389.384765625)"/>
<path d="M0 0 C0.91490707 -0.0071553 1.82981415 -0.01431061 2.77244568 -0.02168274 C5.77524848 -0.03849291 8.77654206 -0.01921201 11.77929688 0.00219727 C13.87862267 0.00136786 15.97794839 -0.00109421 18.07727051 -0.00511169 C22.46854288 -0.00796445 26.85930375 0.00668085 31.25048828 0.03417969 C36.86598483 0.06826109 42.48056716 0.06223901 48.09610748 0.04351711 C52.428564 0.03292485 56.76080953 0.04190524 61.09324646 0.05690193 C63.16319654 0.06206783 65.2331688 0.06162137 67.30311584 0.05535698 C70.20125346 0.04987791 73.09810309 0.07036622 75.99609375 0.09765625 C77.26657814 0.08786743 77.26657814 0.08786743 78.56272888 0.07788086 C85.09214739 0.18189352 90.40863433 1.89294515 95.35546875 6.27734375 C99.50418655 12.71642355 99.16910745 19.23302973 98.99804688 26.69360352 C99.00191406 28.5546875 99.00191406 28.5546875 99.00585938 30.45336914 C98.92661567 37.85869299 98.80735664 43.77664064 93.81445312 49.59204102 C93.23566406 50.05868164 92.656875 50.52532227 92.06054688 51.00610352 C91.48433594 51.48821289 90.908125 51.97032227 90.31445312 52.46704102 C86.94901964 54.62381344 83.54912439 54.76436238 79.62524414 54.82397461 C78.66066788 54.84003754 77.69609161 54.85610046 76.70228577 54.87265015 C72.31349569 54.91725493 67.92485228 54.95812926 63.53588867 54.98120117 C61.22068247 54.99779064 58.90552809 55.02511951 56.59057617 55.06323242 C53.24826565 55.11794251 49.90715081 55.1398629 46.56445312 55.15454102 C45.53099258 55.17721039 44.49753204 55.19987976 43.43275452 55.22323608 C36.26789737 55.20213501 36.26789737 55.20213501 32.34155273 52.28979492 C30.49804688 49.63110352 30.49804688 49.63110352 29.93554688 46.56860352 C30.6646889 42.76086184 31.30845441 41.86699723 34.49804688 39.63110352 C38.12029197 39.00271624 41.71928015 39.02610855 45.38867188 39.02172852 C46.44842224 39.00519226 47.50817261 38.98865601 48.60003662 38.97161865 C51.98276519 38.92305797 55.36504393 38.90174915 58.74804688 38.88110352 C61.04234044 38.85295069 63.33661297 38.82302424 65.63085938 38.79125977 C71.25346377 38.71395913 76.87463769 38.67351233 82.49804688 38.63110352 C82.82804687 31.04110352 83.15804687 23.45110352 83.49804688 15.63110352 C53.79804688 15.63110352 24.09804687 15.63110352 -6.50195312 15.63110352 C-6.17195313 23.22110352 -5.84195313 30.81110352 -5.50195312 38.63110352 C-1.87195313 38.96110352 1.75804688 39.29110352 5.49804688 39.63110352 C8.74804688 41.81860352 8.74804688 41.81860352 10.49804688 44.63110352 C10.49804688 47.99590427 10.15811998 49.79883742 8.06054688 52.44360352 C3.34086965 56.03055821 -2.85016422 55.00329449 -8.50195312 54.63110352 C-13.74030877 52.94734634 -16.31330494 50.05978155 -19.50195312 45.63110352 C-22.36094527 39.72422375 -21.87009506 33.75489555 -21.87695312 27.31860352 C-21.90144531 26.12041992 -21.9259375 24.92223633 -21.95117188 23.68774414 C-21.97379612 16.84391103 -21.87760784 11.128919 -17.50195312 5.63110352 C-11.98656756 0.94291093 -7.07843521 -0.09771369 0 0 Z " fill="#020302" transform="translate(107.501953125,310.368896484375)"/>
<path d="M0 0 C10.89191589 5.8984874 19.23745022 14.8395504 23.7265625 26.4765625 C27.08357405 38.86501802 25.41309815 52.16441837 19.7265625 63.4765625 C15.7265625 63.4765625 15.7265625 63.4765625 13.98046875 61.83203125 C13.42230469 61.11660156 12.86414063 60.40117187 12.2890625 59.6640625 C9.69426135 56.50444472 7.46483048 54.28905607 3.7265625 52.4765625 C4.0565625 51.2184375 4.3865625 49.9603125 4.7265625 48.6640625 C6.43178646 40.80520424 7.07526036 33.34785492 2.93359375 26.19140625 C-0.95350824 20.66895391 -5.89174123 16.6215957 -12.2734375 14.4765625 C-20.11902096 13.6704452 -27.88074327 13.35954043 -34.2734375 18.4765625 C-39.42754895 23.28637096 -43.76674856 28.57312116 -44.515625 35.8203125 C-44.67607709 41.59658779 -43.77809583 46.91470047 -42.2734375 52.4765625 C-42.96050781 53.00765625 -43.64757812 53.53875 -44.35546875 54.0859375 C-45.25652344 54.79234375 -46.15757813 55.49875 -47.0859375 56.2265625 C-47.97925781 56.92265625 -48.87257813 57.61875 -49.79296875 58.3359375 C-52.30313265 60.34808512 -52.30313265 60.34808512 -53.97265625 62.7421875 C-54.40191406 63.31453125 -54.83117187 63.886875 -55.2734375 64.4765625 C-55.9334375 64.4765625 -56.5934375 64.4765625 -57.2734375 64.4765625 C-58.08725545 62.53961572 -58.89944666 60.60198539 -59.7109375 58.6640625 C-60.16339844 57.58511719 -60.61585937 56.50617188 -61.08203125 55.39453125 C-64.95141222 45.9177195 -64.97558593 33.39278622 -61.2109375 23.8515625 C-54.8300538 11.00017594 -45.54549562 2.66531543 -32.2734375 -2.5234375 C-22.22574644 -5.87266785 -9.43118549 -4.27387899 0 0 Z " fill="#FBDD7B" transform="translate(165.2734375,75.5234375)"/>
<path d="M0 0 C29.7 0 59.4 0 90 0 C90 7.59 90 15.18 90 23 C88.40607986 24.59392014 86.73655446 24.14066428 84.52783203 24.15771484 C83.57659454 24.16797699 82.62535706 24.17823914 81.64529419 24.18881226 C80.60992523 24.19611359 79.57455627 24.20341492 78.5078125 24.2109375 C76.33723202 24.23900437 74.1666592 24.26766882 71.99609375 24.296875 C68.55713092 24.33818386 65.11831134 24.37505118 61.67919922 24.40136719 C58.37176584 24.42890144 55.06499328 24.47477427 51.7578125 24.5234375 C50.726492 24.52669037 49.69517151 24.52994324 48.63259888 24.53329468 C47.19628616 24.55814438 47.19628616 24.55814438 45.73095703 24.58349609 C44.88792023 24.59158295 44.04488342 24.5996698 43.17630005 24.60800171 C40.493926 25.09115478 39.63640998 25.85379614 38 28 C37.505 29.485 37.505 29.485 37 31 C33.72963272 31.14510162 30.46008993 31.23399373 27.1875 31.3125 C26.25873047 31.35439453 25.32996094 31.39628906 24.37304688 31.43945312 C21.82304076 31.48548212 19.50522229 31.48415402 17 31 C14.98828125 28.54296875 14.98828125 28.54296875 14 26 C10.70629079 24.35314539 7.06997968 24.54605834 3.43359375 24.28125 C1 24 1 24 0 23 C0 15.41 0 7.82 0 0 Z " fill="#FBDC7B" transform="translate(101,326)"/>
<path d="M0 0 C1.23659866 -0.0112793 2.47319733 -0.02255859 3.74726868 -0.03417969 C5.11483999 -0.02640273 6.48240899 -0.01821006 7.84997559 -0.00964355 C9.29234016 -0.01506457 10.73469919 -0.02218712 12.17704773 -0.03088379 C16.09238186 -0.04912289 20.00729451 -0.04204744 23.92263603 -0.02936745 C28.01939915 -0.01924272 32.1161261 -0.02863165 36.21289062 -0.03491211 C43.09279868 -0.04219007 49.97253501 -0.03259699 56.85241699 -0.0135498 C64.80735426 0.00821933 72.76188147 0.00116805 80.7168088 -0.02085543 C87.54580588 -0.03900526 94.3746795 -0.04156982 101.20369291 -0.03110075 C105.28278036 -0.02486349 109.36167504 -0.02403646 113.44075012 -0.0372467 C117.27567561 -0.04879866 121.11007224 -0.0407921 124.94494057 -0.01766968 C126.35262994 -0.01237899 127.7603638 -0.01390261 129.16803551 -0.02272034 C131.08881419 -0.03364322 133.00969008 -0.01751941 134.93041992 0 C136.00556602 0.0015081 137.08071213 0.0030162 138.18843842 0.00457001 C141.66902647 0.63552025 142.84900938 1.71650519 144.96520996 4.50793457 C145.52770996 8.00793457 145.52770996 8.00793457 144.96520996 11.50793457 C142.39601511 14.11790234 140.71417578 15.37722152 137.08100796 16.01129913 C135.48073301 16.01356129 135.48073301 16.01356129 133.84812927 16.01586914 C132.6185701 16.02714844 131.38901093 16.03842773 130.12219238 16.05004883 C128.76769783 16.04227241 127.41320561 16.03407978 126.05871582 16.0255127 C124.6260558 16.03093538 123.19340135 16.03805887 121.76075745 16.04675293 C117.87647192 16.06497049 113.9926119 16.05792591 110.10831904 16.04523659 C106.04225828 16.03510266 101.97623371 16.04450317 97.91017151 16.05078125 C91.08331771 16.0580557 84.25663708 16.04847448 77.42980957 16.02941895 C69.53676645 16.00764177 61.64413649 16.01470833 53.75110334 16.03672457 C46.97304082 16.05487402 40.19510269 16.05743942 33.41702372 16.04696989 C29.36924977 16.04073353 25.32167008 16.03990329 21.27390862 16.05311584 C17.46933703 16.06466755 13.66529851 16.05666175 9.86078453 16.03353882 C8.46438228 16.02824836 7.06793518 16.02977135 5.67155075 16.03858948 C3.76615243 16.04951306 1.8606561 16.03338794 -0.04469299 16.01586914 C-1.11116593 16.01436104 -2.17763887 16.01285294 -3.27642918 16.01129913 C-6.74348573 15.37860693 -7.92712653 14.28997038 -10.03479004 11.50793457 C-10.53479004 8.00793457 -10.53479004 8.00793457 -10.03479004 4.50793457 C-7.02932635 0.53413719 -4.88479596 0.00685188 0 0 Z " fill="#010101" transform="translate(273.0347900390625,243.4920654296875)"/>
<path d="M0 0 C1.23659866 -0.0112793 2.47319733 -0.02255859 3.74726868 -0.03417969 C5.11483999 -0.02640273 6.48240899 -0.01821006 7.84997559 -0.00964355 C9.29234016 -0.01506457 10.73469919 -0.02218712 12.17704773 -0.03088379 C16.09238186 -0.04912289 20.00729451 -0.04204744 23.92263603 -0.02936745 C28.01939915 -0.01924272 32.1161261 -0.02863165 36.21289062 -0.03491211 C43.09279868 -0.04219007 49.97253501 -0.03259699 56.85241699 -0.0135498 C64.80735426 0.00821933 72.76188147 0.00116805 80.7168088 -0.02085543 C87.54580588 -0.03900526 94.3746795 -0.04156982 101.20369291 -0.03110075 C105.28278036 -0.02486349 109.36167504 -0.02403646 113.44075012 -0.0372467 C117.27567561 -0.04879866 121.11007224 -0.0407921 124.94494057 -0.01766968 C126.35262994 -0.01237899 127.7603638 -0.01390261 129.16803551 -0.02272034 C131.08881419 -0.03364322 133.00969008 -0.01751941 134.93041992 0 C136.00556602 0.0015081 137.08071213 0.0030162 138.18843842 0.00457001 C141.66902647 0.63552025 142.84900938 1.71650519 144.96520996 4.50793457 C145.52770996 8.00793457 145.52770996 8.00793457 144.96520996 11.50793457 C142.39601511 14.11790234 140.71417578 15.37722152 137.08100796 16.01129913 C135.48073301 16.01356129 135.48073301 16.01356129 133.84812927 16.01586914 C132.6185701 16.02714844 131.38901093 16.03842773 130.12219238 16.05004883 C128.76769783 16.04227241 127.41320561 16.03407978 126.05871582 16.0255127 C124.6260558 16.03093538 123.19340135 16.03805887 121.76075745 16.04675293 C117.87647192 16.06497049 113.9926119 16.05792591 110.10831904 16.04523659 C106.04225828 16.03510266 101.97623371 16.04450317 97.91017151 16.05078125 C91.08331771 16.0580557 84.25663708 16.04847448 77.42980957 16.02941895 C69.53676645 16.00764177 61.64413649 16.01470833 53.75110334 16.03672457 C46.97304082 16.05487402 40.19510269 16.05743942 33.41702372 16.04696989 C29.36924977 16.04073353 25.32167008 16.03990329 21.27390862 16.05311584 C17.46933703 16.06466755 13.66529851 16.05666175 9.86078453 16.03353882 C8.46438228 16.02824836 7.06793518 16.02977135 5.67155075 16.03858948 C3.76615243 16.04951306 1.8606561 16.03338794 -0.04469299 16.01586914 C-1.11116593 16.01436104 -2.17763887 16.01285294 -3.27642918 16.01129913 C-6.74348573 15.37860693 -7.92712653 14.28997038 -10.03479004 11.50793457 C-10.53479004 8.00793457 -10.53479004 8.00793457 -10.03479004 4.50793457 C-7.02932635 0.53413719 -4.88479596 0.00685188 0 0 Z " fill="#010101" transform="translate(273.0347900390625,197.4920654296875)"/>
<path d="M0 0 C1.84010902 -0.01691895 1.84010902 -0.01691895 3.71739197 -0.03417969 C5.0739312 -0.02640269 6.43046809 -0.01821003 7.78700256 -0.00964355 C9.21789258 -0.01506467 10.64877702 -0.02218728 12.07965088 -0.03088379 C15.9640625 -0.04912333 19.84804929 -0.04204683 23.73246837 -0.02936745 C27.79806715 -0.01924098 31.86362953 -0.02863232 35.92922974 -0.03491211 C42.75786367 -0.04219039 49.58632459 -0.03259701 56.41493225 -0.0135498 C64.3073667 0.00821068 72.19938768 0.00117447 80.09181207 -0.02085543 C86.86902081 -0.03901475 93.64610516 -0.04156492 100.42333037 -0.03110075 C104.47059215 -0.02486758 108.51765971 -0.02402503 112.56490898 -0.0372467 C116.37111163 -0.04881214 120.17678209 -0.04076743 123.98292732 -0.01766968 C125.37890871 -0.01238582 126.77493497 -0.01389093 128.17089844 -0.02272034 C130.07818998 -0.03367047 131.98557953 -0.01749599 133.89282227 0 C135.49309721 0.00226215 135.49309721 0.00226215 137.12570095 0.00457001 C140.75887028 0.63864789 142.4384816 1.90043618 145.00990295 4.50793457 C145.63490295 8.00793457 145.63490295 8.00793457 145.00990295 11.50793457 C142.4384816 14.11543296 140.75887028 15.37722125 137.12570095 16.01129913 C135.525426 16.01356129 135.525426 16.01356129 133.89282227 16.01586914 C132.66326309 16.02714844 131.43370392 16.03842773 130.16688538 16.05004883 C128.81239082 16.04227241 127.4578986 16.03407978 126.10340881 16.0255127 C124.67074879 16.03093538 123.23809435 16.03805887 121.80545044 16.04675293 C117.92116491 16.06497049 114.03730489 16.05792591 110.15301204 16.04523659 C106.08695128 16.03510266 102.02092671 16.04450317 97.9548645 16.05078125 C91.1280107 16.0580557 84.30133007 16.04847448 77.47450256 16.02941895 C69.58145944 16.00764177 61.68882948 16.01470833 53.79579633 16.03672457 C47.01773381 16.05487402 40.23979568 16.05743942 33.46171671 16.04696989 C29.41394277 16.04073353 25.36636308 16.03990329 21.31860161 16.05311584 C17.51403002 16.06466755 13.7099915 16.05666175 9.90547752 16.03353882 C8.50907527 16.02824836 7.11262818 16.02977135 5.71624374 16.03858948 C3.81084542 16.04951306 1.9053491 16.03338794 0 16.01586914 C-1.06647294 16.01436104 -2.13294588 16.01285294 -3.23173618 16.01129913 C-6.69879273 15.37860693 -7.88243354 14.28997038 -9.99009705 11.50793457 C-10.49009705 8.00793457 -10.49009705 8.00793457 -9.99009705 4.50793457 C-6.99335986 0.55235525 -4.86786601 0.00688366 0 0 Z " fill="#000000" transform="translate(272.99009704589844,381.4920654296875)"/>
<path d="M0 0 C1.84010902 -0.01691895 1.84010902 -0.01691895 3.71739197 -0.03417969 C5.0739312 -0.02640269 6.43046809 -0.01821003 7.78700256 -0.00964355 C9.21789258 -0.01506467 10.64877702 -0.02218728 12.07965088 -0.03088379 C15.9640625 -0.04912333 19.84804929 -0.04204683 23.73246837 -0.02936745 C27.79806715 -0.01924098 31.86362953 -0.02863232 35.92922974 -0.03491211 C42.75786367 -0.04219039 49.58632459 -0.03259701 56.41493225 -0.0135498 C64.3073667 0.00821068 72.19938768 0.00117447 80.09181207 -0.02085543 C86.86902081 -0.03901475 93.64610516 -0.04156492 100.42333037 -0.03110075 C104.47059215 -0.02486758 108.51765971 -0.02402503 112.56490898 -0.0372467 C116.37111163 -0.04881214 120.17678209 -0.04076743 123.98292732 -0.01766968 C125.37890871 -0.01238582 126.77493497 -0.01389093 128.17089844 -0.02272034 C130.07818998 -0.03367047 131.98557953 -0.01749599 133.89282227 0 C135.49309721 0.00226215 135.49309721 0.00226215 137.12570095 0.00457001 C140.75887028 0.63864789 142.4384816 1.90043618 145.00990295 4.50793457 C145.63490295 8.00793457 145.63490295 8.00793457 145.00990295 11.50793457 C142.4384816 14.11543296 140.75887028 15.37722125 137.12570095 16.01129913 C135.525426 16.01356129 135.525426 16.01356129 133.89282227 16.01586914 C132.66326309 16.02714844 131.43370392 16.03842773 130.16688538 16.05004883 C128.81239082 16.04227241 127.4578986 16.03407978 126.10340881 16.0255127 C124.67074879 16.03093538 123.23809435 16.03805887 121.80545044 16.04675293 C117.92116491 16.06497049 114.03730489 16.05792591 110.15301204 16.04523659 C106.08695128 16.03510266 102.02092671 16.04450317 97.9548645 16.05078125 C91.1280107 16.0580557 84.30133007 16.04847448 77.47450256 16.02941895 C69.58145944 16.00764177 61.68882948 16.01470833 53.79579633 16.03672457 C47.01773381 16.05487402 40.23979568 16.05743942 33.46171671 16.04696989 C29.41394277 16.04073353 25.36636308 16.03990329 21.31860161 16.05311584 C17.51403002 16.06466755 13.7099915 16.05666175 9.90547752 16.03353882 C8.50907527 16.02824836 7.11262818 16.02977135 5.71624374 16.03858948 C3.81084542 16.04951306 1.9053491 16.03338794 0 16.01586914 C-1.06647294 16.01436104 -2.13294588 16.01285294 -3.23173618 16.01129913 C-6.69879273 15.37860693 -7.88243354 14.28997038 -9.99009705 11.50793457 C-10.49009705 8.00793457 -10.49009705 8.00793457 -9.99009705 4.50793457 C-6.99335986 0.55235525 -4.86786601 0.00688366 0 0 Z " fill="#000000" transform="translate(272.99009704589844,335.4920654296875)"/>
<path d="M0 0 C3.81767076 2.76968271 4.81054587 3.92011145 5.625 8.5625 C5 12 5 12 2.8125 14.4375 C-0.32888176 16.18271209 -1.49160132 16.66826642 -5 16 C-6.010625 15.34 -7.02125 14.68 -8.0625 14 C-13.02663389 10.94765509 -18.37066021 11.36430585 -24 12 C-29.2986969 13.33669486 -33.96936672 16.19958417 -37.1953125 20.6484375 C-40.46474403 26.2499111 -40.78118281 31.63621806 -40 38 C-38.04308227 44.28273588 -34.77698258 48.91726307 -29.5 52.875 C-23.54535188 54.78899404 -16.69790939 55.28513376 -10.70703125 53.203125 C-8.27180519 51.85310629 -6.2918425 50.3268636 -4.4375 48.25 C-3 47 -3 47 -0.0625 46.5625 C3 47 3 47 5.375 48.5625 C7.66044885 51.99067327 7.6284325 53.95010169 7 58 C3.29512638 64.48352884 -2.9953268 67.81478144 -10 70 C-19.28542653 71.38026611 -28.9382212 71.19939442 -37 66 C-38.010625 65.443125 -39.02125 64.88625 -40.0625 64.3125 C-48.0971437 57.98735496 -54.03358293 50.17802909 -56 40 C-56.87253884 27.8416719 -55.43628686 18.47549022 -47.6171875 8.80859375 C-35.43832583 -4.81172739 -16.41743663 -8.98700467 0 0 Z " fill="#040404" transform="translate(329,83)"/>
<path d="M0 0 C1.226548 0.00303635 1.226548 0.00303635 2.47787476 0.00613403 C3.76315567 0.00350555 3.76315567 0.00350555 5.07440186 0.00082397 C7.9211527 -0.00359561 10.76784197 -0.00065618 13.61459351 0.00271606 C15.58375053 0.00204306 17.55290747 0.00107306 19.52206421 -0.00018311 C23.65480335 -0.00166022 27.78752093 0.00049492 31.92025757 0.00515747 C37.23033871 0.01085476 42.54036932 0.00757583 47.85044861 0.00158501 C51.91834904 -0.00202023 55.9862374 -0.00088219 60.05413818 0.0017128 C62.01265468 0.00238217 63.97117226 0.00155329 65.9296875 -0.00076675 C68.6619255 -0.00329267 71.39408047 0.00054645 74.12631226 0.00613403 C74.94401093 0.0041098 75.76170959 0.00208557 76.60418701 0 C82.18783105 0.02126611 82.18783105 0.02126611 83.30209351 1.13552856 C83.30209351 8.72552856 83.30209351 16.31552856 83.30209351 24.13552856 C53.60209351 24.13552856 23.90209351 24.13552856 -6.69790649 24.13552856 C-6.69790649 0.02550993 -6.69790649 0.02550993 0 0 Z " fill="#F8DA7A" transform="translate(107.69790649414063,404.8644714355469)"/>
<path d="M0 0 C1.226548 0.00303635 1.226548 0.00303635 2.47787476 0.00613403 C3.76315567 0.00350555 3.76315567 0.00350555 5.07440186 0.00082397 C7.9211527 -0.00359561 10.76784197 -0.00065618 13.61459351 0.00271606 C15.58375053 0.00204306 17.55290747 0.00107306 19.52206421 -0.00018311 C23.65480335 -0.00166022 27.78752093 0.00049492 31.92025757 0.00515747 C37.23033871 0.01085476 42.54036932 0.00757583 47.85044861 0.00158501 C51.91834904 -0.00202023 55.9862374 -0.00088219 60.05413818 0.0017128 C62.01265468 0.00238217 63.97117226 0.00155329 65.9296875 -0.00076675 C68.6619255 -0.00329267 71.39408047 0.00054645 74.12631226 0.00613403 C74.94401093 0.0041098 75.76170959 0.00208557 76.60418701 0 C82.18783105 0.02126611 82.18783105 0.02126611 83.30209351 1.13552856 C83.30209351 8.72552856 83.30209351 16.31552856 83.30209351 24.13552856 C53.60209351 24.13552856 23.90209351 24.13552856 -6.69790649 24.13552856 C-6.69790649 0.02550993 -6.69790649 0.02550993 0 0 Z " fill="#F8DA7A" transform="translate(107.69790649414063,245.86447143554688)"/>
<path d="M0 0 C3.95672347 3.92609942 5.46983534 8.35331114 7.19921875 13.51171875 C7.47973587 14.32115433 7.76025299 15.1305899 8.04927063 15.96455383 C8.93819917 18.5357077 9.81320812 21.11133673 10.6875 23.6875 C11.57552036 26.2732558 12.46632804 28.8580358 13.35786438 31.44258118 C13.91036547 33.04759889 14.4602452 34.65352184 15.00724792 36.26042175 C16.32950397 40.20078377 16.32950397 40.20078377 18 44 C18.40839111 42.77369873 18.81678223 41.54739746 19.23754883 40.28393555 C20.75492389 35.73548092 22.28400233 31.19103373 23.81665039 26.64770508 C24.47838174 24.68068065 25.1369332 22.71258349 25.79223633 20.7434082 C26.73465589 17.91329588 27.68843998 15.08723713 28.64453125 12.26171875 C28.9352803 11.38037766 29.22602936 10.49903656 29.52558899 9.59098816 C29.80565292 8.77036392 30.08571686 7.94973969 30.37426758 7.10424805 C30.61631424 6.38254929 30.8583609 5.66085052 31.10774231 4.9172821 C32.12612454 2.72898375 33.10509215 1.49271601 35 0 C38.85016788 -0.49002137 41.10810967 -0.51283694 44.5 1.4375 C46.75756946 5.29418116 45.81545703 8.78571393 45 13 C43.79479653 17.4591478 42.35364002 21.82791325 40.88671875 26.20703125 C40.47589554 27.44998459 40.06507233 28.69293793 39.64179993 29.97355652 C38.77607253 32.58849876 37.90366369 35.20109124 37.02661133 37.81225586 C35.90605039 41.15086171 34.80475507 44.49546969 33.70859051 47.8421526 C32.65420107 51.05087925 31.58204419 54.253585 30.51171875 57.45703125 C30.11989914 58.65495804 29.72807953 59.85288483 29.3243866 61.08711243 C28.94752213 62.19894394 28.57065765 63.31077545 28.18237305 64.45629883 C27.85673874 65.43286942 27.53110443 66.40944 27.19560242 67.41560364 C25.86404971 70.29386812 24.40847032 71.95714776 22 74 C20 74.53125 20 74.53125 18 74.5 C17.34 74.5103125 16.68 74.520625 16 74.53125 C13.11228481 73.76420065 11.95225365 72.23534346 10 70 C8.80249023 67.48339844 8.80249023 67.48339844 7.80859375 64.609375 C7.42622559 63.52221191 7.04385742 62.43504883 6.64990234 61.31494141 C6.04976318 59.55029541 6.04976318 59.55029541 5.4375 57.75 C5.0142041 56.53103027 4.5909082 55.31206055 4.15478516 54.05615234 C3.24301428 51.43046871 2.33849697 48.80241754 1.43798828 46.17285156 C0.20774693 42.58917407 -1.0502282 39.01587557 -2.31694031 35.44494629 C-3.34427267 32.54636914 -4.36321871 29.64488609 -5.38058472 26.74279785 C-5.87422363 25.33843734 -6.37055455 23.93502 -6.86965942 22.53259277 C-7.57062054 20.55862688 -8.25935107 18.58078259 -8.9453125 16.6015625 C-9.34250488 15.47057129 -9.73969727 14.33958008 -10.14892578 13.17431641 C-11.01917893 9.92846687 -11.27620026 7.34244071 -11 4 C-8.07075041 -0.45245938 -5.11843736 -0.822606 0 0 Z " fill="#030303" transform="translate(367,79)"/>
<path d="M0 0 C0.72421646 -0.00861557 1.44843292 -0.01723114 2.19459534 -0.02610779 C4.57866576 -0.04873433 6.96155763 -0.04203624 9.34570312 -0.03295898 C11.00810087 -0.03819578 12.67049564 -0.04447247 14.33288574 -0.05174255 C17.81304937 -0.06214035 21.29280395 -0.05759401 24.77294922 -0.04296875 C29.22877695 -0.02577421 33.68331598 -0.04928653 38.13899994 -0.08445835 C41.57062291 -0.10643652 45.00193763 -0.10499009 48.43360901 -0.09669304 C50.07623204 -0.09587388 51.71887778 -0.1027306 53.36143494 -0.11746407 C55.65972757 -0.13492096 57.955706 -0.12036261 60.25390625 -0.09765625 C62.21318054 -0.09621361 62.21318054 -0.09621361 64.21203613 -0.09474182 C68.50333696 0.69466195 70.01611423 2.093036 72.62695312 5.53344727 C72.62695312 8.97254587 72.42800829 11.30967053 70.52354431 14.21913147 C67.63049801 16.22397916 64.67811961 15.95925218 61.28149414 15.9375 C60.16393738 15.94779488 60.16393738 15.94779488 59.02380371 15.95829773 C56.55929543 15.97660932 54.09542113 15.9727221 51.63085938 15.96704102 C49.91836845 15.9716009 48.20587936 15.9769059 46.49339294 15.98292542 C42.90299042 15.99186518 39.31281021 15.98942382 35.72241211 15.97949219 C31.12088597 15.96800413 26.5201274 15.98820665 21.91870213 16.01740932 C18.38163883 16.03575492 14.84475999 16.03548213 11.30766106 16.0297718 C9.6111843 16.02961837 7.9146952 16.03568079 6.21826363 16.04806328 C3.84562159 16.06294027 1.47440406 16.05232186 -0.89819336 16.03515625 C-1.59910599 16.04482422 -2.30001862 16.05449219 -3.02217102 16.06445312 C-6.34516095 16.01410479 -8.11046225 15.72915383 -10.80506897 13.72084045 C-13.11673442 10.49597278 -12.9938394 8.39615631 -12.37304688 4.53344727 C-8.48126256 0.43328084 -5.53538185 0.02626852 0 0 Z " fill="#040505" transform="translate(275.373046875,428.466552734375)"/>
<path d="M0 0 C0.73382401 -0.00700928 1.46764801 -0.01401855 2.22370911 -0.02124023 C4.64570131 -0.03882275 7.06652162 -0.02719632 9.48852539 -0.01367188 C11.17477136 -0.01636703 12.86101582 -0.02024965 14.54725647 -0.02526855 C18.08048303 -0.03116416 21.61330489 -0.0226 25.14648438 -0.00390625 C29.67057289 0.01886618 34.19371132 0.00577197 38.71776485 -0.01819611 C42.19998805 -0.03266753 45.68198695 -0.0280417 49.164217 -0.01768494 C50.83194657 -0.01502044 52.49969664 -0.01827768 54.16740227 -0.02760315 C56.50147084 -0.03778937 58.83401352 -0.02224017 61.16796875 0 C61.85436432 -0.00809692 62.54075989 -0.01619385 63.24795532 -0.02453613 C66.72727596 0.03672866 68.60802796 0.4919134 71.5771637 2.36633301 C73.64868164 4.51757812 73.64868164 4.51757812 74.27368164 7.45507812 C73.43142738 11.58212399 71.91476285 12.89885561 68.64868164 15.51757812 C65.94240049 16.00897926 63.86524872 16.19462765 61.16796875 16.14868164 C60.43239243 16.15583694 59.6968161 16.16299225 58.93894958 16.17036438 C56.51733531 16.18721797 54.09758101 16.16787276 51.67602539 16.14648438 C49.98881375 16.1473133 48.3016022 16.14977359 46.61439514 16.15379333 C43.08285134 16.1566489 39.55194262 16.14197276 36.02050781 16.11450195 C31.49519719 16.08039285 26.97102001 16.08644803 22.44565487 16.10516453 C18.96345072 16.11573478 15.48151016 16.10679703 11.99933052 16.09177971 C10.33078354 16.08659935 8.66220902 16.08707795 6.9936657 16.09332466 C4.66184182 16.09877847 2.33163909 16.07840035 0 16.05102539 C-0.6884198 16.05755127 -1.3768396 16.06407715 -2.08612061 16.07080078 C-5.3794624 16.00509152 -7.11222722 15.69625005 -9.77952576 13.70298767 C-12.07901436 10.50579464 -11.89957581 8.35538025 -11.35131836 4.51757812 C-8.21036238 0.1484327 -5.05540551 -0.0594597 0 0 Z " fill="#010202" transform="translate(274.351318359375,289.482421875)"/>
<path d="M0 0 C2.37366472 0.08987149 4.74964007 0.13013037 7.125 0.125 C8.92324219 0.12886719 8.92324219 0.12886719 10.7578125 0.1328125 C13.85831448 0.14407691 13.85831448 0.14407691 16.15234375 -0.6640625 C18.92732849 -1.16860518 20.14999823 -0.05407399 22.4375 1.5 C26.71033124 4.5177752 29.32845424 7.51869744 32 12 C32 12.66 32 13.32 32 14 C30.46101439 14.79686606 28.91866216 15.58723141 27.375 16.375 C26.51648438 16.81585938 25.65796875 17.25671875 24.7734375 17.7109375 C18.56428289 20.5968826 13.44702455 21.33921749 6.6875 21.3125 C5.88376953 21.32861328 5.08003906 21.34472656 4.25195312 21.36132812 C-4.58138014 21.36843459 -11.56244399 18.5891303 -19 14 C-18.49890292 9.71449811 -17.28118172 7.779909 -14.1875 4.8125 C-13.15689453 3.80123047 -13.15689453 3.80123047 -12.10546875 2.76953125 C-7.69541017 -0.93688162 -5.65182117 -1.11930933 0 0 Z " fill="#3E6D90" transform="translate(140,139)"/>
<path d="M0 0 C3.0220794 1.74450506 5.41651082 3.83302164 7 7 C7.12742751 11.63290034 6.55454372 15.12346315 4.0625 19.0625 C-0.29310708 21.81808816 -3.98166384 22.00531529 -9 21 C-12.07204549 18.99376621 -13.45581618 17.57748525 -14.65625 14.09765625 C-15.45599176 10.09125763 -15.17678353 8.34093966 -13.25 4.625 C-9.38382942 0.11446765 -5.80368268 -1.10598481 0 0 Z " fill="#345C7A" transform="translate(150,104)"/>
</svg>
